<?xml version="1.0" standalone="no"?><!DOCTYPE svg PUBLIC "-//W3C//DTD SVG 1.1//EN" "http://www.w3.org/Graphics/SVG/1.1/DTD/svg11.dtd"><svg t="1648550967048" class="icon" viewBox="0 0 1024 1024" version="1.1" xmlns="http://www.w3.org/2000/svg" p-id="2902" xmlns:xlink="http://www.w3.org/1999/xlink" width="200" height="200"><defs><style type="text/css">@font-face { font-family: feedback-iconfont; src: url("//at.alicdn.com/t/font_1031158_u69w8yhxdu.woff2?t=1630033759944") format("woff2"), url("//at.alicdn.com/t/font_1031158_u69w8yhxdu.woff?t=1630033759944") format("woff"), url("//at.alicdn.com/t/font_1031158_u69w8yhxdu.ttf?t=1630033759944") format("truetype"); }
</style></defs><path d="M947.2 269.312h-870.4c-28.16 0-51.2 23.04-51.2 51.2v382.976c0 28.16 23.04 51.2 51.2 51.2h870.4c28.16 0 51.2-23.04 51.2-51.2V320.512c0-28.16-23.04-51.2-51.2-51.2z m-51.2 382.976h-768V371.712h130.048v83.456c0 28.16 23.04 51.2 51.2 51.2s51.2-23.04 51.2-51.2V371.712H460.8v133.632c0 28.16 23.04 51.2 51.2 51.2s51.2-23.04 51.2-51.2V371.712h100.352v83.456c0 28.16 23.04 51.2 51.2 51.2s51.2-23.04 51.2-51.2V371.712h130.048v280.576z" fill="" p-id="2903"></path></svg>