<?xml version="1.0" standalone="no"?><!DOCTYPE svg PUBLIC "-//W3C//DTD SVG 1.1//EN" "http://www.w3.org/Graphics/SVG/1.1/DTD/svg11.dtd"><svg t="1647672902170" class="icon" viewBox="0 0 1024 1024" version="1.1" xmlns="http://www.w3.org/2000/svg" p-id="7854" xmlns:xlink="http://www.w3.org/1999/xlink" width="200" height="200"><defs><style type="text/css">@font-face { font-family: feedback-iconfont; src: url("//at.alicdn.com/t/font_1031158_u69w8yhxdu.woff2?t=1630033759944") format("woff2"), url("//at.alicdn.com/t/font_1031158_u69w8yhxdu.woff?t=1630033759944") format("woff"), url("//at.alicdn.com/t/font_1031158_u69w8yhxdu.ttf?t=1630033759944") format("truetype"); }
</style></defs><path d="M727.04 348.16c0-138.24-112.64-250.88-250.88-250.88S225.28 204.8 225.28 348.16c0 92.16 51.2 174.08 128 220.16-153.6 51.2-271.36 199.68-271.36 373.76 0 15.36 10.24 30.72 30.72 30.72s30.72-10.24 30.72-30.72c0-184.32 148.48-332.8 332.8-332.8 5.12 0 10.24 0 15.36-5.12 133.12-10.24 235.52-122.88 235.52-256z m-445.44 0C281.6 240.64 368.64 153.6 476.16 153.6s194.56 87.04 194.56 194.56-87.04 194.56-194.56 194.56-194.56-92.16-194.56-194.56zM624.64 742.4h276.48c10.24 0 25.6-10.24 30.72-20.48 5.12-10.24 5.12-25.6-10.24-30.72L844.8 614.4c-10.24-10.24-30.72-10.24-46.08 0-10.24 10.24-10.24 30.72 0 46.08l25.6 25.6h-204.8c-15.36 0-30.72 10.24-30.72 30.72s20.48 25.6 35.84 25.6zM906.24 808.96h-276.48c-10.24 0-25.6 10.24-30.72 20.48-5.12 10.24-5.12 25.6 10.24 30.72l76.8 76.8c5.12 5.12 10.24 10.24 20.48 10.24s15.36-5.12 20.48-10.24c10.24-10.24 10.24-30.72 0-46.08l-25.6-20.48h204.8c15.36 0 30.72-10.24 30.72-30.72 0-25.6-15.36-30.72-30.72-30.72z" p-id="7855"></path></svg>