<?xml version="1.0" standalone="no"?><!DOCTYPE svg PUBLIC "-//W3C//DTD SVG 1.1//EN" "http://www.w3.org/Graphics/SVG/1.1/DTD/svg11.dtd"><svg t="1647668151446" class="icon" viewBox="0 0 1024 1024" version="1.1" xmlns="http://www.w3.org/2000/svg" p-id="5075" xmlns:xlink="http://www.w3.org/1999/xlink" width="200" height="200"><defs><style type="text/css">@font-face { font-family: feedback-iconfont; src: url("//at.alicdn.com/t/font_1031158_u69w8yhxdu.woff2?t=1630033759944") format("woff2"), url("//at.alicdn.com/t/font_1031158_u69w8yhxdu.woff?t=1630033759944") format("woff"), url("//at.alicdn.com/t/font_1031158_u69w8yhxdu.ttf?t=1630033759944") format("truetype"); }
</style></defs><path d="M917.333333 166.4c-106.666667-106.666667-285.866667-106.666667-392.533333 0l-12.8 17.066667-17.066667-12.8C388.266667 64 209.066667 64 102.4 170.666667s-106.666667 285.866667 0 392.533333l375.466667 375.466667c17.066667 17.066667 42.666667 17.066667 59.733333 0l375.466667-375.466667c110.933333-110.933333 110.933333-290.133333 4.266666-396.8z m-59.733333 332.8L512 844.8l-345.6-345.6C85.333333 426.666667 81.066667 302.933333 157.866667 226.133333s192-81.066667 268.8-4.266666l8.533333 8.533333 46.933333 46.933333c17.066667 17.066667 42.666667 17.066667 59.733334 0l46.933333-46.933333c76.8-76.8 196.266667-76.8 273.066667 0 68.266667 72.533333 68.266667 192-4.266667 268.8z" p-id="5076"></path></svg>